<?xml version="1.0" encoding="UTF-8" standalone="no"?>
<!DOCTYPE svg PUBLIC "-//W3C//DTD SVG 1.1//EN"
 "http://www.w3.org/Graphics/SVG/1.1/DTD/svg11.dtd">
<!-- Generated by graphviz version 2.47.0 (20210316.0004)
 -->
<!-- Title: dbml Pages: 1 -->
<svg width="2407pt" height="2232pt"
 viewBox="0.00 0.00 2407.03 2232.48" xmlns="http://www.w3.org/2000/svg" xmlns:xlink="http://www.w3.org/1999/xlink">
<g id="graph0" class="graph" transform="scale(1 1) rotate(0) translate(4 2228.48)">
<title>dbml</title>
<!-- BaseModel -->
<g id="BaseModel" class="node">
<title>BaseModel</title>
<g id="a_BaseModel"><a xlink:title="BaseModel&#10;&#10; &#160;&#160;&#160;========================&#10; &#160;&#160;&#160;&#160;&#160;&#160;&#160;&#160;ABSTRACT MODEL&#10; &#160;&#160;&#160;========================&#10; &#160;&#160;&#160;All tables should inherit from this model&#10; &#160;">
<ellipse fill="none" stroke="black" stroke-width="0" cx="256.68" cy="-1032.53" rx="242.58" ry="214.92"/>
<polygon fill="#1d71b8" stroke="transparent" points="87.68,-1122.53 87.68,-1182.53 426.68,-1182.53 426.68,-1122.53 87.68,-1122.53"/>
<polygon fill="none" stroke="#29235c" points="87.68,-1122.53 87.68,-1182.53 426.68,-1182.53 426.68,-1122.53 87.68,-1122.53"/>
<text text-anchor="start" x="114.91" y="-1143.73" font-family="Helvetica,sans-Serif" font-weight="bold" font-size="32.00" fill="#ffffff"> &#160;&#160;&#160;&#160;&#160;&#160;BaseModel &#160;&#160;&#160;&#160;&#160;&#160;</text>
<polygon fill="#e7e2dd" stroke="transparent" points="87.68,-1062.53 87.68,-1122.53 426.68,-1122.53 426.68,-1062.53 87.68,-1062.53"/>
<polygon fill="none" stroke="#29235c" points="87.68,-1062.53 87.68,-1122.53 426.68,-1122.53 426.68,-1062.53 87.68,-1062.53"/>
<text text-anchor="start" x="98.68" y="-1083.73" font-family="Helvetica,sans-Serif" font-weight="bold" font-size="32.00" fill="#29235c">id</text>
<text text-anchor="start" x="123.57" y="-1083.73" font-family="Helvetica,sans-Serif" font-size="32.00" fill="#29235c"> &#160;&#160;&#160;</text>
<text text-anchor="start" x="381.9" y="-1083.73" font-family="Helvetica,sans-Serif" font-style="italic" font-size="32.00" fill="#29235c">int</text>
<polygon fill="#e7e2dd" stroke="transparent" points="87.68,-1002.53 87.68,-1062.53 426.68,-1062.53 426.68,-1002.53 87.68,-1002.53"/>
<polygon fill="none" stroke="#29235c" points="87.68,-1002.53 87.68,-1062.53 426.68,-1062.53 426.68,-1002.53 87.68,-1002.53"/>
<text text-anchor="start" x="98.68" y="-1022.73" font-family="Helvetica,sans-Serif" font-size="32.00" fill="#29235c">created_at &#160;&#160;&#160;</text>
<text text-anchor="start" x="292.99" y="-1023.73" font-family="Helvetica,sans-Serif" font-style="italic" font-size="32.00" fill="#29235c">datetime</text>
<polygon fill="#e7e2dd" stroke="transparent" points="87.68,-942.53 87.68,-1002.53 426.68,-1002.53 426.68,-942.53 87.68,-942.53"/>
<polygon fill="none" stroke="#29235c" points="87.68,-942.53 87.68,-1002.53 426.68,-1002.53 426.68,-942.53 87.68,-942.53"/>
<text text-anchor="start" x="98.35" y="-962.73" font-family="Helvetica,sans-Serif" font-size="32.00" fill="#29235c">updated_at &#160;&#160;&#160;</text>
<text text-anchor="start" x="293.33" y="-963.73" font-family="Helvetica,sans-Serif" font-style="italic" font-size="32.00" fill="#29235c">datetime</text>
<polygon fill="#e7e2dd" stroke="transparent" points="87.68,-882.53 87.68,-942.53 426.68,-942.53 426.68,-882.53 87.68,-882.53"/>
<polygon fill="none" stroke="#29235c" points="87.68,-882.53 87.68,-942.53 426.68,-942.53 426.68,-882.53 87.68,-882.53"/>
<text text-anchor="start" x="98.68" y="-902.73" font-family="Helvetica,sans-Serif" font-size="32.00" fill="#29235c">uuid &#160;&#160;&#160;</text>
<text text-anchor="start" x="234.34" y="-903.73" font-family="Helvetica,sans-Serif" font-style="italic" font-size="32.00" fill="#29235c">varchar(255)</text>
<polygon fill="none" stroke="#29235c" stroke-width="2" points="86.18,-881.53 86.18,-1183.53 427.18,-1183.53 427.18,-881.53 86.18,-881.53"/>
</a>
</g>
</g>
<!-- ContactPerson -->
<g id="ContactPerson" class="node">
<title>ContactPerson</title>
<g id="a_ContactPerson"><a xlink:title="ContactPerson&#10;Contact persons for operating companies">
<ellipse fill="none" stroke="black" stroke-width="0" cx="2143.05" cy="-1922.53" rx="255.95" ry="214.92"/>
<polygon fill="#1d71b8" stroke="transparent" points="1964.05,-2012.53 1964.05,-2072.53 2322.05,-2072.53 2322.05,-2012.53 1964.05,-2012.53"/>
<polygon fill="none" stroke="#29235c" points="1964.05,-2012.53 1964.05,-2072.53 2322.05,-2072.53 2322.05,-2012.53 1964.05,-2012.53"/>
<text text-anchor="start" x="1975" y="-2033.73" font-family="Helvetica,sans-Serif" font-weight="bold" font-size="32.00" fill="#ffffff"> &#160;&#160;&#160;&#160;&#160;&#160;ContactPerson &#160;&#160;&#160;&#160;&#160;&#160;</text>
<polygon fill="#e7e2dd" stroke="transparent" points="1964.05,-1952.53 1964.05,-2012.53 2322.05,-2012.53 2322.05,-1952.53 1964.05,-1952.53"/>
<polygon fill="none" stroke="#29235c" points="1964.05,-1952.53 1964.05,-2012.53 2322.05,-2012.53 2322.05,-1952.53 1964.05,-1952.53"/>
<text text-anchor="start" x="1975.05" y="-1973.73" font-family="Helvetica,sans-Serif" font-weight="bold" font-size="32.00" fill="#29235c">id</text>
<text text-anchor="start" x="1999.94" y="-1973.73" font-family="Helvetica,sans-Serif" font-size="32.00" fill="#29235c"> &#160;&#160;&#160;</text>
<text text-anchor="start" x="2277.27" y="-1973.73" font-family="Helvetica,sans-Serif" font-style="italic" font-size="32.00" fill="#29235c">int</text>
<polygon fill="#e7e2dd" stroke="transparent" points="1964.05,-1892.53 1964.05,-1952.53 2322.05,-1952.53 2322.05,-1892.53 1964.05,-1892.53"/>
<polygon fill="none" stroke="#29235c" points="1964.05,-1892.53 1964.05,-1952.53 2322.05,-1952.53 2322.05,-1892.53 1964.05,-1892.53"/>
<text text-anchor="start" x="1975.05" y="-1912.73" font-family="Helvetica,sans-Serif" font-size="32.00" fill="#29235c">name &#160;&#160;&#160;</text>
<text text-anchor="start" x="2129.71" y="-1913.73" font-family="Helvetica,sans-Serif" font-style="italic" font-size="32.00" fill="#29235c">varchar(100)</text>
<polygon fill="#e7e2dd" stroke="transparent" points="1964.05,-1832.53 1964.05,-1892.53 2322.05,-1892.53 2322.05,-1832.53 1964.05,-1832.53"/>
<polygon fill="none" stroke="#29235c" points="1964.05,-1832.53 1964.05,-1892.53 2322.05,-1892.53 2322.05,-1832.53 1964.05,-1832.53"/>
<text text-anchor="start" x="1975.05" y="-1852.73" font-family="Helvetica,sans-Serif" font-size="32.00" fill="#29235c">phone &#160;&#160;&#160;</text>
<text text-anchor="start" x="2147.5" y="-1853.73" font-family="Helvetica,sans-Serif" font-style="italic" font-size="32.00" fill="#29235c">varchar(20)</text>
<polygon fill="#e7e2dd" stroke="transparent" points="1964.05,-1772.53 1964.05,-1832.53 2322.05,-1832.53 2322.05,-1772.53 1964.05,-1772.53"/>
<polygon fill="none" stroke="#29235c" points="1964.05,-1772.53 1964.05,-1832.53 2322.05,-1832.53 2322.05,-1772.53 1964.05,-1772.53"/>
<text text-anchor="start" x="1975.05" y="-1792.73" font-family="Helvetica,sans-Serif" font-size="32.00" fill="#29235c">email &#160;&#160;&#160;</text>
<text text-anchor="start" x="2129.71" y="-1793.73" font-family="Helvetica,sans-Serif" font-style="italic" font-size="32.00" fill="#29235c">varchar(255)</text>
<polygon fill="none" stroke="#29235c" stroke-width="2" points="1963.05,-1771.53 1963.05,-2073.53 2323.05,-2073.53 2323.05,-1771.53 1963.05,-1771.53"/>
</a>
</g>
</g>
<!-- OperatingCompany -->
<g id="OperatingCompany" class="node">
<title>OperatingCompany</title>
<g id="a_OperatingCompany"><a xlink:title="OperatingCompany&#10;Operating companies managing ships">
<ellipse fill="none" stroke="black" stroke-width="0" cx="1549.15" cy="-1952.53" rx="301.87" ry="172.57"/>
<polygon fill="#1d71b8" stroke="transparent" points="1338.15,-2012.53 1338.15,-2072.53 1761.15,-2072.53 1761.15,-2012.53 1338.15,-2012.53"/>
<polygon fill="none" stroke="#29235c" points="1338.15,-2012.53 1338.15,-2072.53 1761.15,-2072.53 1761.15,-2012.53 1338.15,-2012.53"/>
<text text-anchor="start" x="1348.7" y="-2033.73" font-family="Helvetica,sans-Serif" font-weight="bold" font-size="32.00" fill="#ffffff"> &#160;&#160;&#160;&#160;&#160;&#160;OperatingCompany &#160;&#160;&#160;&#160;&#160;&#160;</text>
<polygon fill="#e7e2dd" stroke="transparent" points="1338.15,-1952.53 1338.15,-2012.53 1761.15,-2012.53 1761.15,-1952.53 1338.15,-1952.53"/>
<polygon fill="none" stroke="#29235c" points="1338.15,-1952.53 1338.15,-2012.53 1761.15,-2012.53 1761.15,-1952.53 1338.15,-1952.53"/>
<text text-anchor="start" x="1349.15" y="-1973.73" font-family="Helvetica,sans-Serif" font-weight="bold" font-size="32.00" fill="#29235c">id</text>
<text text-anchor="start" x="1374.04" y="-1973.73" font-family="Helvetica,sans-Serif" font-size="32.00" fill="#29235c"> &#160;&#160;&#160;</text>
<text text-anchor="start" x="1716.36" y="-1973.73" font-family="Helvetica,sans-Serif" font-style="italic" font-size="32.00" fill="#29235c">int</text>
<polygon fill="#e7e2dd" stroke="transparent" points="1338.15,-1892.53 1338.15,-1952.53 1761.15,-1952.53 1761.15,-1892.53 1338.15,-1892.53"/>
<polygon fill="none" stroke="#29235c" points="1338.15,-1892.53 1338.15,-1952.53 1761.15,-1952.53 1761.15,-1892.53 1338.15,-1892.53"/>
<text text-anchor="start" x="1349.15" y="-1912.73" font-family="Helvetica,sans-Serif" font-size="32.00" fill="#29235c">name &#160;&#160;&#160;</text>
<text text-anchor="start" x="1568.8" y="-1913.73" font-family="Helvetica,sans-Serif" font-style="italic" font-size="32.00" fill="#29235c">varchar(100)</text>
<polygon fill="#e7e2dd" stroke="transparent" points="1338.15,-1832.53 1338.15,-1892.53 1761.15,-1892.53 1761.15,-1832.53 1338.15,-1832.53"/>
<polygon fill="none" stroke="#29235c" points="1338.15,-1832.53 1338.15,-1892.53 1761.15,-1892.53 1761.15,-1832.53 1338.15,-1832.53"/>
<text text-anchor="start" x="1349.15" y="-1852.73" font-family="Helvetica,sans-Serif" font-size="32.00" fill="#29235c">contact_person &#160;&#160;&#160;</text>
<text text-anchor="start" x="1716.36" y="-1853.73" font-family="Helvetica,sans-Serif" font-style="italic" font-size="32.00" fill="#29235c">int</text>
<polygon fill="none" stroke="#29235c" stroke-width="2" points="1336.65,-1831.53 1336.65,-2073.53 1761.65,-2073.53 1761.65,-1831.53 1336.65,-1831.53"/>
</a>
</g>
</g>
<!-- OperatingCompany&#45;&gt;ContactPerson -->
<!-- OperatingCompany&#45;&gt;ContactPerson -->
<g id="edge2" class="edge">
<title>OperatingCompany:e&#45;&gt;ContactPerson:w</title>
<path fill="none" stroke="#29235c" stroke-width="3" d="M1762.15,-1862.53C1862.7,-1862.53 1859.4,-1974.7 1953.05,-1982.15"/>
<polygon fill="#29235c" stroke="#29235c" stroke-width="3" points="1952.93,-1985.64 1963.05,-1982.53 1953.2,-1978.65 1952.93,-1985.64"/>
<text text-anchor="middle" x="1971.95" y="-1992.13" font-family="Helvetica,sans-Serif" font-size="32.00" fill="#29235c">1</text>
<text text-anchor="middle" x="1768.37" y="-1872.13" font-family="Helvetica,sans-Serif" font-size="32.00" fill="#29235c">*</text>
</g>
<!-- Ship -->
<g id="Ship" class="node">
<title>Ship</title>
<g id="a_Ship"><a xlink:title="Ship&#10;Details of ships">
<ellipse fill="none" stroke="black" stroke-width="0" cx="880.29" cy="-1712.53" rx="295.64" ry="511.89"/>
<polygon fill="#1d71b8" stroke="transparent" points="673.29,-2012.53 673.29,-2072.53 1087.29,-2072.53 1087.29,-2012.53 673.29,-2012.53"/>
<polygon fill="none" stroke="#29235c" points="673.29,-2012.53 673.29,-2072.53 1087.29,-2072.53 1087.29,-2012.53 673.29,-2012.53"/>
<text text-anchor="start" x="786.03" y="-2033.73" font-family="Helvetica,sans-Serif" font-weight="bold" font-size="32.00" fill="#ffffff"> &#160;&#160;&#160;&#160;&#160;&#160;Ship &#160;&#160;&#160;&#160;&#160;&#160;</text>
<polygon fill="#e7e2dd" stroke="transparent" points="673.29,-1952.53 673.29,-2012.53 1087.29,-2012.53 1087.29,-1952.53 673.29,-1952.53"/>
<polygon fill="none" stroke="#29235c" points="673.29,-1952.53 673.29,-2012.53 1087.29,-2012.53 1087.29,-1952.53 673.29,-1952.53"/>
<text text-anchor="start" x="684.29" y="-1973.73" font-family="Helvetica,sans-Serif" font-weight="bold" font-size="32.00" fill="#29235c">id</text>
<text text-anchor="start" x="709.18" y="-1973.73" font-family="Helvetica,sans-Serif" font-size="32.00" fill="#29235c"> &#160;&#160;&#160;</text>
<text text-anchor="start" x="1042.5" y="-1973.73" font-family="Helvetica,sans-Serif" font-style="italic" font-size="32.00" fill="#29235c">int</text>
<polygon fill="#e7e2dd" stroke="transparent" points="673.29,-1892.53 673.29,-1952.53 1087.29,-1952.53 1087.29,-1892.53 673.29,-1892.53"/>
<polygon fill="none" stroke="#29235c" points="673.29,-1892.53 673.29,-1952.53 1087.29,-1952.53 1087.29,-1892.53 673.29,-1892.53"/>
<text text-anchor="start" x="684.29" y="-1912.73" font-family="Helvetica,sans-Serif" font-size="32.00" fill="#29235c">name &#160;&#160;&#160;</text>
<text text-anchor="start" x="855.85" y="-1913.73" font-family="Helvetica,sans-Serif" font-style="italic" font-size="32.00" fill="#29235c">varchar(100)</text>
<text text-anchor="start" x="1037.19" y="-1913.73" font-family="Helvetica,sans-Serif" font-size="32.00" fill="#29235c"> </text>
<text text-anchor="start" x="1046.09" y="-1913.73" font-family="Helvetica,sans-Serif" font-weight="bold" font-size="32.00" fill="#29235c">(!)</text>
<polygon fill="#e7e2dd" stroke="transparent" points="673.29,-1832.53 673.29,-1892.53 1087.29,-1892.53 1087.29,-1832.53 673.29,-1832.53"/>
<polygon fill="none" stroke="#29235c" points="673.29,-1832.53 673.29,-1892.53 1087.29,-1892.53 1087.29,-1832.53 673.29,-1832.53"/>
<text text-anchor="start" x="684.29" y="-1852.73" font-family="Helvetica,sans-Serif" font-size="32.00" fill="#29235c">tonnage &#160;&#160;&#160;</text>
<text text-anchor="start" x="1003.41" y="-1853.73" font-family="Helvetica,sans-Serif" font-style="italic" font-size="32.00" fill="#29235c">int</text>
<text text-anchor="start" x="1037.19" y="-1853.73" font-family="Helvetica,sans-Serif" font-size="32.00" fill="#29235c"> </text>
<text text-anchor="start" x="1046.09" y="-1853.73" font-family="Helvetica,sans-Serif" font-weight="bold" font-size="32.00" fill="#29235c">(!)</text>
<polygon fill="#e7e2dd" stroke="transparent" points="673.29,-1772.53 673.29,-1832.53 1087.29,-1832.53 1087.29,-1772.53 673.29,-1772.53"/>
<polygon fill="none" stroke="#29235c" points="673.29,-1772.53 673.29,-1832.53 1087.29,-1832.53 1087.29,-1772.53 673.29,-1772.53"/>
<text text-anchor="start" x="684.29" y="-1792.73" font-family="Helvetica,sans-Serif" font-size="32.00" fill="#29235c">draft_max_load &#160;&#160;&#160;</text>
<text text-anchor="start" x="976.73" y="-1793.73" font-family="Helvetica,sans-Serif" font-style="italic" font-size="32.00" fill="#29235c">float</text>
<text text-anchor="start" x="1037.19" y="-1793.73" font-family="Helvetica,sans-Serif" font-size="32.00" fill="#29235c"> </text>
<text text-anchor="start" x="1046.09" y="-1793.73" font-family="Helvetica,sans-Serif" font-weight="bold" font-size="32.00" fill="#29235c">(!)</text>
<polygon fill="#e7e2dd" stroke="transparent" points="673.29,-1712.53 673.29,-1772.53 1087.29,-1772.53 1087.29,-1712.53 673.29,-1712.53"/>
<polygon fill="none" stroke="#29235c" points="673.29,-1712.53 673.29,-1772.53 1087.29,-1772.53 1087.29,-1712.53 673.29,-1712.53"/>
<text text-anchor="start" x="684.29" y="-1732.73" font-family="Helvetica,sans-Serif" font-size="32.00" fill="#29235c">draft_dry &#160;&#160;&#160;</text>
<text text-anchor="start" x="976.73" y="-1733.73" font-family="Helvetica,sans-Serif" font-style="italic" font-size="32.00" fill="#29235c">float</text>
<text text-anchor="start" x="1037.19" y="-1733.73" font-family="Helvetica,sans-Serif" font-size="32.00" fill="#29235c"> </text>
<text text-anchor="start" x="1046.09" y="-1733.73" font-family="Helvetica,sans-Serif" font-weight="bold" font-size="32.00" fill="#29235c">(!)</text>
<polygon fill="#e7e2dd" stroke="transparent" points="673.29,-1652.53 673.29,-1712.53 1087.29,-1712.53 1087.29,-1652.53 673.29,-1652.53"/>
<polygon fill="none" stroke="#29235c" points="673.29,-1652.53 673.29,-1712.53 1087.29,-1712.53 1087.29,-1652.53 673.29,-1652.53"/>
<text text-anchor="start" x="684.29" y="-1672.73" font-family="Helvetica,sans-Serif" font-size="32.00" fill="#29235c">type &#160;&#160;&#160;</text>
<text text-anchor="start" x="873.64" y="-1673.73" font-family="Helvetica,sans-Serif" font-style="italic" font-size="32.00" fill="#29235c">varchar(50)</text>
<text text-anchor="start" x="1037.19" y="-1673.73" font-family="Helvetica,sans-Serif" font-size="32.00" fill="#29235c"> </text>
<text text-anchor="start" x="1046.09" y="-1673.73" font-family="Helvetica,sans-Serif" font-weight="bold" font-size="32.00" fill="#29235c">(!)</text>
<polygon fill="#e7e2dd" stroke="transparent" points="673.29,-1592.53 673.29,-1652.53 1087.29,-1652.53 1087.29,-1592.53 673.29,-1592.53"/>
<polygon fill="none" stroke="#29235c" points="673.29,-1592.53 673.29,-1652.53 1087.29,-1652.53 1087.29,-1592.53 673.29,-1592.53"/>
<text text-anchor="start" x="684.29" y="-1612.73" font-family="Helvetica,sans-Serif" font-size="32.00" fill="#29235c">beam &#160;&#160;&#160;</text>
<text text-anchor="start" x="976.73" y="-1613.73" font-family="Helvetica,sans-Serif" font-style="italic" font-size="32.00" fill="#29235c">float</text>
<text text-anchor="start" x="1037.19" y="-1613.73" font-family="Helvetica,sans-Serif" font-size="32.00" fill="#29235c"> </text>
<text text-anchor="start" x="1046.09" y="-1613.73" font-family="Helvetica,sans-Serif" font-weight="bold" font-size="32.00" fill="#29235c">(!)</text>
<polygon fill="#e7e2dd" stroke="transparent" points="673.29,-1532.53 673.29,-1592.53 1087.29,-1592.53 1087.29,-1532.53 673.29,-1532.53"/>
<polygon fill="none" stroke="#29235c" points="673.29,-1532.53 673.29,-1592.53 1087.29,-1592.53 1087.29,-1532.53 673.29,-1532.53"/>
<text text-anchor="start" x="684.29" y="-1552.73" font-family="Helvetica,sans-Serif" font-size="32.00" fill="#29235c">length &#160;&#160;&#160;</text>
<text text-anchor="start" x="976.73" y="-1553.73" font-family="Helvetica,sans-Serif" font-style="italic" font-size="32.00" fill="#29235c">float</text>
<text text-anchor="start" x="1037.19" y="-1553.73" font-family="Helvetica,sans-Serif" font-size="32.00" fill="#29235c"> </text>
<text text-anchor="start" x="1046.09" y="-1553.73" font-family="Helvetica,sans-Serif" font-weight="bold" font-size="32.00" fill="#29235c">(!)</text>
<polygon fill="#e7e2dd" stroke="transparent" points="673.29,-1472.53 673.29,-1532.53 1087.29,-1532.53 1087.29,-1472.53 673.29,-1472.53"/>
<polygon fill="none" stroke="#29235c" points="673.29,-1472.53 673.29,-1532.53 1087.29,-1532.53 1087.29,-1472.53 673.29,-1472.53"/>
<text text-anchor="start" x="684.29" y="-1492.73" font-family="Helvetica,sans-Serif" font-size="32.00" fill="#29235c">flag &#160;&#160;&#160;</text>
<text text-anchor="start" x="894.94" y="-1493.73" font-family="Helvetica,sans-Serif" font-style="italic" font-size="32.00" fill="#29235c">varchar(100)</text>
<polygon fill="#e7e2dd" stroke="transparent" points="673.29,-1412.53 673.29,-1472.53 1087.29,-1472.53 1087.29,-1412.53 673.29,-1412.53"/>
<polygon fill="none" stroke="#29235c" points="673.29,-1412.53 673.29,-1472.53 1087.29,-1472.53 1087.29,-1412.53 673.29,-1412.53"/>
<text text-anchor="start" x="684.29" y="-1432.73" font-family="Helvetica,sans-Serif" font-size="32.00" fill="#29235c">year_built &#160;&#160;&#160;</text>
<text text-anchor="start" x="1042.5" y="-1433.73" font-family="Helvetica,sans-Serif" font-style="italic" font-size="32.00" fill="#29235c">int</text>
<polygon fill="#e7e2dd" stroke="transparent" points="673.29,-1352.53 673.29,-1412.53 1087.29,-1412.53 1087.29,-1352.53 673.29,-1352.53"/>
<polygon fill="none" stroke="#29235c" points="673.29,-1352.53 673.29,-1412.53 1087.29,-1412.53 1087.29,-1352.53 673.29,-1352.53"/>
<text text-anchor="start" x="684.17" y="-1372.73" font-family="Helvetica,sans-Serif" font-size="32.00" fill="#29235c">operating_company_id &#160;&#160;&#160;</text>
<text text-anchor="start" x="1042.89" y="-1373.73" font-family="Helvetica,sans-Serif" font-style="italic" font-size="32.00" fill="#29235c">int</text>
<polygon fill="none" stroke="#29235c" stroke-width="2" points="672.29,-1351.53 672.29,-2073.53 1088.29,-2073.53 1088.29,-1351.53 672.29,-1351.53"/>
</a>
</g>
</g>
<!-- Ship&#45;&gt;OperatingCompany -->
<!-- Ship&#45;&gt;OperatingCompany -->
<g id="edge4" class="edge">
<title>Ship:e&#45;&gt;OperatingCompany:w</title>
<path fill="none" stroke="#29235c" stroke-width="3" d="M1088.29,-1382.53C1373.46,-1382.53 1056.38,-1967.98 1326.85,-1982.27"/>
<polygon fill="#29235c" stroke="#29235c" stroke-width="3" points="1327.06,-1985.77 1337.15,-1982.53 1327.24,-1978.78 1327.06,-1985.77"/>
<text text-anchor="middle" x="1346.04" y="-1992.13" font-family="Helvetica,sans-Serif" font-size="32.00" fill="#29235c">1</text>
<text text-anchor="middle" x="1094.51" y="-1392.13" font-family="Helvetica,sans-Serif" font-size="32.00" fill="#29235c">*</text>
</g>
<!-- Harbour -->
<g id="Harbour" class="node">
<title>Harbour</title>
<g id="a_Harbour"><a xlink:title="Harbour&#10;Details of harbours">
<ellipse fill="none" stroke="black" stroke-width="0" cx="880.29" cy="-882.53" rx="330.85" ry="299.63"/>
<polygon fill="#1d71b8" stroke="transparent" points="648.29,-1032.53 648.29,-1092.53 1112.29,-1092.53 1112.29,-1032.53 648.29,-1032.53"/>
<polygon fill="none" stroke="#29235c" points="648.29,-1032.53 648.29,-1092.53 1112.29,-1092.53 1112.29,-1032.53 648.29,-1032.53"/>
<text text-anchor="start" x="760.26" y="-1053.73" font-family="Helvetica,sans-Serif" font-weight="bold" font-size="32.00" fill="#ffffff"> &#160;&#160;&#160;&#160;&#160;&#160;Harbour &#160;&#160;&#160;&#160;&#160;&#160;</text>
<polygon fill="#e7e2dd" stroke="transparent" points="648.29,-972.53 648.29,-1032.53 1112.29,-1032.53 1112.29,-972.53 648.29,-972.53"/>
<polygon fill="none" stroke="#29235c" points="648.29,-972.53 648.29,-1032.53 1112.29,-1032.53 1112.29,-972.53 648.29,-972.53"/>
<text text-anchor="start" x="659.29" y="-993.73" font-family="Helvetica,sans-Serif" font-weight="bold" font-size="32.00" fill="#29235c">id</text>
<text text-anchor="start" x="684.18" y="-993.73" font-family="Helvetica,sans-Serif" font-size="32.00" fill="#29235c"> &#160;&#160;&#160;</text>
<text text-anchor="start" x="1067.5" y="-993.73" font-family="Helvetica,sans-Serif" font-style="italic" font-size="32.00" fill="#29235c">int</text>
<polygon fill="#e7e2dd" stroke="transparent" points="648.29,-912.53 648.29,-972.53 1112.29,-972.53 1112.29,-912.53 648.29,-912.53"/>
<polygon fill="none" stroke="#29235c" points="648.29,-912.53 648.29,-972.53 1112.29,-972.53 1112.29,-912.53 648.29,-912.53"/>
<text text-anchor="start" x="659.29" y="-932.73" font-family="Helvetica,sans-Serif" font-size="32.00" fill="#29235c">name &#160;&#160;&#160;</text>
<text text-anchor="start" x="919.94" y="-933.73" font-family="Helvetica,sans-Serif" font-style="italic" font-size="32.00" fill="#29235c">varchar(100)</text>
<polygon fill="#e7e2dd" stroke="transparent" points="648.29,-852.53 648.29,-912.53 1112.29,-912.53 1112.29,-852.53 648.29,-852.53"/>
<polygon fill="none" stroke="#29235c" points="648.29,-852.53 648.29,-912.53 1112.29,-912.53 1112.29,-852.53 648.29,-852.53"/>
<text text-anchor="start" x="659.29" y="-872.73" font-family="Helvetica,sans-Serif" font-size="32.00" fill="#29235c">berth_depth_max &#160;&#160;&#160;</text>
<text text-anchor="start" x="1040.82" y="-873.73" font-family="Helvetica,sans-Serif" font-style="italic" font-size="32.00" fill="#29235c">float</text>
<polygon fill="#e7e2dd" stroke="transparent" points="648.29,-792.53 648.29,-852.53 1112.29,-852.53 1112.29,-792.53 648.29,-792.53"/>
<polygon fill="none" stroke="#29235c" points="648.29,-792.53 648.29,-852.53 1112.29,-852.53 1112.29,-792.53 648.29,-792.53"/>
<text text-anchor="start" x="659.09" y="-812.73" font-family="Helvetica,sans-Serif" font-size="32.00" fill="#29235c">harbour_master &#160;&#160;&#160;</text>
<text text-anchor="start" x="920.11" y="-813.73" font-family="Helvetica,sans-Serif" font-style="italic" font-size="32.00" fill="#29235c">varchar(100)</text>
<polygon fill="#e7e2dd" stroke="transparent" points="648.29,-732.53 648.29,-792.53 1112.29,-792.53 1112.29,-732.53 648.29,-732.53"/>
<polygon fill="none" stroke="#29235c" points="648.29,-732.53 648.29,-792.53 1112.29,-792.53 1112.29,-732.53 648.29,-732.53"/>
<text text-anchor="start" x="659.29" y="-752.73" font-family="Helvetica,sans-Serif" font-size="32.00" fill="#29235c">location &#160;&#160;&#160;</text>
<text text-anchor="start" x="1067.5" y="-753.73" font-family="Helvetica,sans-Serif" font-style="italic" font-size="32.00" fill="#29235c">int</text>
<polygon fill="#e7e2dd" stroke="transparent" points="648.29,-672.53 648.29,-732.53 1112.29,-732.53 1112.29,-672.53 648.29,-672.53"/>
<polygon fill="none" stroke="#29235c" points="648.29,-672.53 648.29,-732.53 1112.29,-732.53 1112.29,-672.53 648.29,-672.53"/>
<text text-anchor="start" x="659.29" y="-692.73" font-family="Helvetica,sans-Serif" font-size="32.00" fill="#29235c">vts_centre &#160;&#160;&#160;</text>
<text text-anchor="start" x="1067.5" y="-693.73" font-family="Helvetica,sans-Serif" font-style="italic" font-size="32.00" fill="#29235c">int</text>
<polygon fill="none" stroke="#29235c" stroke-width="2" points="647.29,-671.53 647.29,-1093.53 1113.29,-1093.53 1113.29,-671.53 647.29,-671.53"/>
</a>
</g>
</g>
<!-- Location -->
<g id="Location" class="node">
<title>Location</title>
<g id="a_Location"><a xlink:title="Location&#10;Location of harbours">
<ellipse fill="none" stroke="black" stroke-width="0" cx="1549.15" cy="-982.53" rx="245.23" ry="172.57"/>
<polygon fill="#1d71b8" stroke="transparent" points="1378.15,-1042.53 1378.15,-1102.53 1721.15,-1102.53 1721.15,-1042.53 1378.15,-1042.53"/>
<polygon fill="none" stroke="#29235c" points="1378.15,-1042.53 1378.15,-1102.53 1721.15,-1102.53 1721.15,-1042.53 1378.15,-1042.53"/>
<text text-anchor="start" x="1426.93" y="-1063.73" font-family="Helvetica,sans-Serif" font-weight="bold" font-size="32.00" fill="#ffffff"> &#160;&#160;&#160;&#160;&#160;&#160;Location &#160;&#160;&#160;&#160;&#160;&#160;</text>
<polygon fill="#e7e2dd" stroke="transparent" points="1378.15,-982.53 1378.15,-1042.53 1721.15,-1042.53 1721.15,-982.53 1378.15,-982.53"/>
<polygon fill="none" stroke="#29235c" points="1378.15,-982.53 1378.15,-1042.53 1721.15,-1042.53 1721.15,-982.53 1378.15,-982.53"/>
<text text-anchor="start" x="1389.15" y="-1003.73" font-family="Helvetica,sans-Serif" font-weight="bold" font-size="32.00" fill="#29235c">id</text>
<text text-anchor="start" x="1414.04" y="-1003.73" font-family="Helvetica,sans-Serif" font-size="32.00" fill="#29235c"> &#160;&#160;&#160;</text>
<text text-anchor="start" x="1676.36" y="-1003.73" font-family="Helvetica,sans-Serif" font-style="italic" font-size="32.00" fill="#29235c">int</text>
<polygon fill="#e7e2dd" stroke="transparent" points="1378.15,-922.53 1378.15,-982.53 1721.15,-982.53 1721.15,-922.53 1378.15,-922.53"/>
<polygon fill="none" stroke="#29235c" points="1378.15,-922.53 1378.15,-982.53 1721.15,-982.53 1721.15,-922.53 1378.15,-922.53"/>
<text text-anchor="start" x="1389.15" y="-942.73" font-family="Helvetica,sans-Serif" font-size="32.00" fill="#29235c">city &#160;&#160;&#160;</text>
<text text-anchor="start" x="1528.8" y="-943.73" font-family="Helvetica,sans-Serif" font-style="italic" font-size="32.00" fill="#29235c">varchar(100)</text>
<polygon fill="#e7e2dd" stroke="transparent" points="1378.15,-862.53 1378.15,-922.53 1721.15,-922.53 1721.15,-862.53 1378.15,-862.53"/>
<polygon fill="none" stroke="#29235c" points="1378.15,-862.53 1378.15,-922.53 1721.15,-922.53 1721.15,-862.53 1378.15,-862.53"/>
<text text-anchor="start" x="1388.9" y="-882.73" font-family="Helvetica,sans-Serif" font-size="32.00" fill="#29235c">country &#160;&#160;&#160;</text>
<text text-anchor="start" x="1528.97" y="-883.73" font-family="Helvetica,sans-Serif" font-style="italic" font-size="32.00" fill="#29235c">varchar(100)</text>
<polygon fill="none" stroke="#29235c" stroke-width="2" points="1376.65,-861.53 1376.65,-1103.53 1721.65,-1103.53 1721.65,-861.53 1376.65,-861.53"/>
</a>
</g>
</g>
<!-- Harbour&#45;&gt;Location -->
<!-- Harbour&#45;&gt;Location -->
<g id="edge6" class="edge">
<title>Harbour:e&#45;&gt;Location:w</title>
<path fill="none" stroke="#29235c" stroke-width="3" d="M1113.29,-762.53C1271.36,-762.53 1218.04,-1001.91 1367.04,-1012.19"/>
<polygon fill="#29235c" stroke="#29235c" stroke-width="3" points="1367.03,-1015.69 1377.15,-1012.53 1367.27,-1008.7 1367.03,-1015.69"/>
<text text-anchor="middle" x="1386.04" y="-1022.13" font-family="Helvetica,sans-Serif" font-size="32.00" fill="#29235c">1</text>
<text text-anchor="middle" x="1119.51" y="-772.13" font-family="Helvetica,sans-Serif" font-size="32.00" fill="#29235c">*</text>
</g>
<!-- VTSCentre -->
<g id="VTSCentre" class="node">
<title>VTSCentre</title>
<g id="a_VTSCentre"><a xlink:title="VTSCentre&#10;Vessel Traffic Service Centre">
<ellipse fill="none" stroke="black" stroke-width="0" cx="1549.15" cy="-577.53" rx="227.88" ry="214.92"/>
<polygon fill="#1d71b8" stroke="transparent" points="1390.15,-667.53 1390.15,-727.53 1708.15,-727.53 1708.15,-667.53 1390.15,-667.53"/>
<polygon fill="none" stroke="#29235c" points="1390.15,-667.53 1390.15,-727.53 1708.15,-727.53 1708.15,-667.53 1390.15,-667.53"/>
<text text-anchor="start" x="1407.77" y="-688.73" font-family="Helvetica,sans-Serif" font-weight="bold" font-size="32.00" fill="#ffffff"> &#160;&#160;&#160;&#160;&#160;&#160;VTSCentre &#160;&#160;&#160;&#160;&#160;&#160;</text>
<polygon fill="#e7e2dd" stroke="transparent" points="1390.15,-607.53 1390.15,-667.53 1708.15,-667.53 1708.15,-607.53 1390.15,-607.53"/>
<polygon fill="none" stroke="#29235c" points="1390.15,-607.53 1390.15,-667.53 1708.15,-667.53 1708.15,-607.53 1390.15,-607.53"/>
<text text-anchor="start" x="1401.15" y="-628.73" font-family="Helvetica,sans-Serif" font-weight="bold" font-size="32.00" fill="#29235c">id</text>
<text text-anchor="start" x="1426.04" y="-628.73" font-family="Helvetica,sans-Serif" font-size="32.00" fill="#29235c"> &#160;&#160;&#160;</text>
<text text-anchor="start" x="1663.36" y="-628.73" font-family="Helvetica,sans-Serif" font-style="italic" font-size="32.00" fill="#29235c">int</text>
<polygon fill="#e7e2dd" stroke="transparent" points="1390.15,-547.53 1390.15,-607.53 1708.15,-607.53 1708.15,-547.53 1390.15,-547.53"/>
<polygon fill="none" stroke="#29235c" points="1390.15,-547.53 1390.15,-607.53 1708.15,-607.53 1708.15,-547.53 1390.15,-547.53"/>
<text text-anchor="start" x="1400.85" y="-567.73" font-family="Helvetica,sans-Serif" font-size="32.00" fill="#29235c">name &#160;&#160;&#160;</text>
<text text-anchor="start" x="1515.97" y="-568.73" font-family="Helvetica,sans-Serif" font-style="italic" font-size="32.00" fill="#29235c">varchar(100)</text>
<polygon fill="#e7e2dd" stroke="transparent" points="1390.15,-487.53 1390.15,-547.53 1708.15,-547.53 1708.15,-487.53 1390.15,-487.53"/>
<polygon fill="none" stroke="#29235c" points="1390.15,-487.53 1390.15,-547.53 1708.15,-547.53 1708.15,-487.53 1390.15,-487.53"/>
<text text-anchor="start" x="1401.15" y="-507.73" font-family="Helvetica,sans-Serif" font-size="32.00" fill="#29235c">phone &#160;&#160;&#160;</text>
<text text-anchor="start" x="1533.59" y="-508.73" font-family="Helvetica,sans-Serif" font-style="italic" font-size="32.00" fill="#29235c">varchar(20)</text>
<polygon fill="#e7e2dd" stroke="transparent" points="1390.15,-427.53 1390.15,-487.53 1708.15,-487.53 1708.15,-427.53 1390.15,-427.53"/>
<polygon fill="none" stroke="#29235c" points="1390.15,-427.53 1390.15,-487.53 1708.15,-487.53 1708.15,-427.53 1390.15,-427.53"/>
<text text-anchor="start" x="1401.15" y="-447.73" font-family="Helvetica,sans-Serif" font-size="32.00" fill="#29235c">email &#160;&#160;&#160;</text>
<text text-anchor="start" x="1515.8" y="-448.73" font-family="Helvetica,sans-Serif" font-style="italic" font-size="32.00" fill="#29235c">varchar(255)</text>
<polygon fill="none" stroke="#29235c" stroke-width="2" points="1389.15,-426.53 1389.15,-728.53 1709.15,-728.53 1709.15,-426.53 1389.15,-426.53"/>
</a>
</g>
</g>
<!-- Harbour&#45;&gt;VTSCentre -->
<!-- Harbour&#45;&gt;VTSCentre -->
<g id="edge8" class="edge">
<title>Harbour:e&#45;&gt;VTSCentre:w</title>
<path fill="none" stroke="#29235c" stroke-width="3" d="M1113.29,-702.53C1235.8,-702.53 1261.8,-641.04 1379.04,-637.68"/>
<polygon fill="#29235c" stroke="#29235c" stroke-width="3" points="1379.2,-641.18 1389.15,-637.53 1379.1,-634.18 1379.2,-641.18"/>
<text text-anchor="middle" x="1398.04" y="-647.13" font-family="Helvetica,sans-Serif" font-size="32.00" fill="#29235c">1</text>
<text text-anchor="middle" x="1119.51" y="-712.13" font-family="Helvetica,sans-Serif" font-size="32.00" fill="#29235c">*</text>
</g>
<!-- ShipMovement -->
<g id="ShipMovement" class="node">
<title>ShipMovement</title>
<g id="a_ShipMovement"><a xlink:title="ShipMovement&#10;Records of ship movements in and out of harbours">
<ellipse fill="none" stroke="black" stroke-width="0" cx="256.68" cy="-1522.53" rx="256.86" ry="257.27"/>
<polygon fill="#1d71b8" stroke="transparent" points="77.68,-1642.53 77.68,-1702.53 436.68,-1702.53 436.68,-1642.53 77.68,-1642.53"/>
<polygon fill="none" stroke="#29235c" points="77.68,-1642.53 77.68,-1702.53 436.68,-1702.53 436.68,-1642.53 77.68,-1642.53"/>
<text text-anchor="start" x="88.24" y="-1663.73" font-family="Helvetica,sans-Serif" font-weight="bold" font-size="32.00" fill="#ffffff"> &#160;&#160;&#160;&#160;&#160;&#160;ShipMovement &#160;&#160;&#160;&#160;&#160;&#160;</text>
<polygon fill="#e7e2dd" stroke="transparent" points="77.68,-1582.53 77.68,-1642.53 436.68,-1642.53 436.68,-1582.53 77.68,-1582.53"/>
<polygon fill="none" stroke="#29235c" points="77.68,-1582.53 77.68,-1642.53 436.68,-1642.53 436.68,-1582.53 77.68,-1582.53"/>
<text text-anchor="start" x="88.68" y="-1603.73" font-family="Helvetica,sans-Serif" font-weight="bold" font-size="32.00" fill="#29235c">id</text>
<text text-anchor="start" x="113.57" y="-1603.73" font-family="Helvetica,sans-Serif" font-size="32.00" fill="#29235c"> &#160;&#160;&#160;</text>
<text text-anchor="start" x="391.9" y="-1603.73" font-family="Helvetica,sans-Serif" font-style="italic" font-size="32.00" fill="#29235c">int</text>
<polygon fill="#e7e2dd" stroke="transparent" points="77.68,-1522.53 77.68,-1582.53 436.68,-1582.53 436.68,-1522.53 77.68,-1522.53"/>
<polygon fill="none" stroke="#29235c" points="77.68,-1522.53 77.68,-1582.53 436.68,-1582.53 436.68,-1522.53 77.68,-1522.53"/>
<text text-anchor="start" x="88.68" y="-1542.73" font-family="Helvetica,sans-Serif" font-size="32.00" fill="#29235c">entered_at &#160;&#160;&#160;</text>
<text text-anchor="start" x="302.99" y="-1543.73" font-family="Helvetica,sans-Serif" font-style="italic" font-size="32.00" fill="#29235c">datetime</text>
<polygon fill="#e7e2dd" stroke="transparent" points="77.68,-1462.53 77.68,-1522.53 436.68,-1522.53 436.68,-1462.53 77.68,-1462.53"/>
<polygon fill="none" stroke="#29235c" points="77.68,-1462.53 77.68,-1522.53 436.68,-1522.53 436.68,-1462.53 77.68,-1462.53"/>
<text text-anchor="start" x="88.68" y="-1482.73" font-family="Helvetica,sans-Serif" font-size="32.00" fill="#29235c">exited_at &#160;&#160;&#160;</text>
<text text-anchor="start" x="302.99" y="-1483.73" font-family="Helvetica,sans-Serif" font-style="italic" font-size="32.00" fill="#29235c">datetime</text>
<polygon fill="#e7e2dd" stroke="transparent" points="77.68,-1402.53 77.68,-1462.53 436.68,-1462.53 436.68,-1402.53 77.68,-1402.53"/>
<polygon fill="none" stroke="#29235c" points="77.68,-1402.53 77.68,-1462.53 436.68,-1462.53 436.68,-1402.53 77.68,-1402.53"/>
<text text-anchor="start" x="88.68" y="-1422.73" font-family="Helvetica,sans-Serif" font-size="32.00" fill="#29235c">ship_id &#160;&#160;&#160;</text>
<text text-anchor="start" x="391.9" y="-1423.73" font-family="Helvetica,sans-Serif" font-style="italic" font-size="32.00" fill="#29235c">int</text>
<polygon fill="#e7e2dd" stroke="transparent" points="77.68,-1342.53 77.68,-1402.53 436.68,-1402.53 436.68,-1342.53 77.68,-1342.53"/>
<polygon fill="none" stroke="#29235c" points="77.68,-1342.53 77.68,-1402.53 436.68,-1402.53 436.68,-1342.53 77.68,-1342.53"/>
<text text-anchor="start" x="88.68" y="-1362.73" font-family="Helvetica,sans-Serif" font-size="32.00" fill="#29235c">harbour_id &#160;&#160;&#160;</text>
<text text-anchor="start" x="391.9" y="-1363.73" font-family="Helvetica,sans-Serif" font-style="italic" font-size="32.00" fill="#29235c">int</text>
<polygon fill="none" stroke="#29235c" stroke-width="2" points="76.18,-1341.53 76.18,-1703.53 437.18,-1703.53 437.18,-1341.53 76.18,-1341.53"/>
</a>
</g>
</g>
<!-- ShipMovement&#45;&gt;Ship -->
<!-- ShipMovement&#45;&gt;Ship -->
<g id="edge10" class="edge">
<title>ShipMovement:e&#45;&gt;Ship:w</title>
<path fill="none" stroke="#29235c" stroke-width="3" d="M437.68,-1432.53C699.93,-1432.53 414.26,-1968.13 662.07,-1982.25"/>
<polygon fill="#29235c" stroke="#29235c" stroke-width="3" points="662.19,-1985.75 672.29,-1982.53 662.39,-1978.76 662.19,-1985.75"/>
<text text-anchor="middle" x="663.39" y="-1992.13" font-family="Helvetica,sans-Serif" font-size="32.00" fill="#29235c">1</text>
<text text-anchor="middle" x="431.46" y="-1442.13" font-family="Helvetica,sans-Serif" font-size="32.00" fill="#29235c">*</text>
</g>
<!-- ShipMovement&#45;&gt;Harbour -->
<!-- ShipMovement&#45;&gt;Harbour -->
<g id="edge12" class="edge">
<title>ShipMovement:e&#45;&gt;Harbour:w</title>
<path fill="none" stroke="#29235c" stroke-width="3" d="M437.68,-1372.53C623.17,-1372.53 464.41,-1016.14 637.13,-1002.91"/>
<polygon fill="#29235c" stroke="#29235c" stroke-width="3" points="637.42,-1006.4 647.29,-1002.53 637.16,-999.41 637.42,-1006.4"/>
<text text-anchor="middle" x="638.39" y="-1012.13" font-family="Helvetica,sans-Serif" font-size="32.00" fill="#29235c">1</text>
<text text-anchor="middle" x="431.46" y="-1382.13" font-family="Helvetica,sans-Serif" font-size="32.00" fill="#29235c">*</text>
</g>
<!-- User -->
<g id="User" class="node">
<title>User</title>
<g id="a_User"><a xlink:title="User&#10;Users of the system aka the VTS Operators">
<ellipse fill="none" stroke="black" stroke-width="0" cx="1549.15" cy="-172.53" rx="267.99" ry="172.57"/>
<polygon fill="#1d71b8" stroke="transparent" points="1362.15,-232.53 1362.15,-292.53 1737.15,-292.53 1737.15,-232.53 1362.15,-232.53"/>
<polygon fill="none" stroke="#29235c" points="1362.15,-232.53 1362.15,-292.53 1737.15,-292.53 1737.15,-232.53 1362.15,-232.53"/>
<text text-anchor="start" x="1453.63" y="-253.73" font-family="Helvetica,sans-Serif" font-weight="bold" font-size="32.00" fill="#ffffff"> &#160;&#160;&#160;&#160;&#160;&#160;User &#160;&#160;&#160;&#160;&#160;&#160;</text>
<polygon fill="#e7e2dd" stroke="transparent" points="1362.15,-172.53 1362.15,-232.53 1737.15,-232.53 1737.15,-172.53 1362.15,-172.53"/>
<polygon fill="none" stroke="#29235c" points="1362.15,-172.53 1362.15,-232.53 1737.15,-232.53 1737.15,-172.53 1362.15,-172.53"/>
<text text-anchor="start" x="1373.15" y="-193.73" font-family="Helvetica,sans-Serif" font-weight="bold" font-size="32.00" fill="#29235c">id</text>
<text text-anchor="start" x="1398.04" y="-193.73" font-family="Helvetica,sans-Serif" font-size="32.00" fill="#29235c"> &#160;&#160;&#160;</text>
<text text-anchor="start" x="1692.36" y="-193.73" font-family="Helvetica,sans-Serif" font-style="italic" font-size="32.00" fill="#29235c">int</text>
<polygon fill="#e7e2dd" stroke="transparent" points="1362.15,-112.53 1362.15,-172.53 1737.15,-172.53 1737.15,-112.53 1362.15,-112.53"/>
<polygon fill="none" stroke="#29235c" points="1362.15,-112.53 1362.15,-172.53 1737.15,-172.53 1737.15,-112.53 1362.15,-112.53"/>
<text text-anchor="start" x="1372.91" y="-132.73" font-family="Helvetica,sans-Serif" font-size="32.00" fill="#29235c">password &#160;&#160;&#160;</text>
<text text-anchor="start" x="1544.97" y="-133.73" font-family="Helvetica,sans-Serif" font-style="italic" font-size="32.00" fill="#29235c">varchar(255)</text>
<polygon fill="#e7e2dd" stroke="transparent" points="1362.15,-52.53 1362.15,-112.53 1737.15,-112.53 1737.15,-52.53 1362.15,-52.53"/>
<polygon fill="none" stroke="#29235c" points="1362.15,-52.53 1362.15,-112.53 1737.15,-112.53 1737.15,-52.53 1362.15,-52.53"/>
<text text-anchor="start" x="1373.15" y="-72.73" font-family="Helvetica,sans-Serif" font-size="32.00" fill="#29235c">email &#160;&#160;&#160;</text>
<text text-anchor="start" x="1544.8" y="-73.73" font-family="Helvetica,sans-Serif" font-style="italic" font-size="32.00" fill="#29235c">varchar(255)</text>
<polygon fill="none" stroke="#29235c" stroke-width="2" points="1360.65,-51.53 1360.65,-293.53 1737.65,-293.53 1737.65,-51.53 1360.65,-51.53"/>
</a>
</g>
</g>
<!-- Operator -->
<g id="Operator" class="node">
<title>Operator</title>
<g id="a_Operator"><a xlink:title="Operator&#10;Operators of the VTS Centre">
<ellipse fill="none" stroke="black" stroke-width="0" cx="880.29" cy="-340.53" rx="195.74" ry="214.92"/>
<polygon fill="#1d71b8" stroke="transparent" points="744.29,-430.53 744.29,-490.53 1017.29,-490.53 1017.29,-430.53 744.29,-430.53"/>
<polygon fill="none" stroke="#29235c" points="744.29,-430.53 744.29,-490.53 1017.29,-490.53 1017.29,-430.53 744.29,-430.53"/>
<text text-anchor="start" x="755.41" y="-451.73" font-family="Helvetica,sans-Serif" font-weight="bold" font-size="32.00" fill="#ffffff"> &#160;&#160;&#160;&#160;&#160;&#160;Operator &#160;&#160;&#160;&#160;&#160;&#160;</text>
<polygon fill="#e7e2dd" stroke="transparent" points="744.29,-370.53 744.29,-430.53 1017.29,-430.53 1017.29,-370.53 744.29,-370.53"/>
<polygon fill="none" stroke="#29235c" points="744.29,-370.53 744.29,-430.53 1017.29,-430.53 1017.29,-370.53 744.29,-370.53"/>
<text text-anchor="start" x="755.29" y="-391.73" font-family="Helvetica,sans-Serif" font-weight="bold" font-size="32.00" fill="#29235c">id</text>
<text text-anchor="start" x="780.18" y="-391.73" font-family="Helvetica,sans-Serif" font-size="32.00" fill="#29235c"> &#160;&#160;&#160;</text>
<text text-anchor="start" x="972.5" y="-391.73" font-family="Helvetica,sans-Serif" font-style="italic" font-size="32.00" fill="#29235c">int</text>
<polygon fill="#e7e2dd" stroke="transparent" points="744.29,-310.53 744.29,-370.53 1017.29,-370.53 1017.29,-310.53 744.29,-310.53"/>
<polygon fill="none" stroke="#29235c" points="744.29,-310.53 744.29,-370.53 1017.29,-370.53 1017.29,-310.53 744.29,-310.53"/>
<text text-anchor="start" x="754.83" y="-330.73" font-family="Helvetica,sans-Serif" font-size="32.00" fill="#29235c">role &#160;&#160;&#160;</text>
<text text-anchor="start" x="843.01" y="-331.73" font-family="Helvetica,sans-Serif" font-style="italic" font-size="32.00" fill="#29235c">varchar(50)</text>
<polygon fill="#e7e2dd" stroke="transparent" points="744.29,-250.53 744.29,-310.53 1017.29,-310.53 1017.29,-250.53 744.29,-250.53"/>
<polygon fill="none" stroke="#29235c" points="744.29,-250.53 744.29,-310.53 1017.29,-310.53 1017.29,-250.53 744.29,-250.53"/>
<text text-anchor="start" x="755.29" y="-270.73" font-family="Helvetica,sans-Serif" font-size="32.00" fill="#29235c">vts_centre &#160;&#160;&#160;</text>
<text text-anchor="start" x="972.5" y="-271.73" font-family="Helvetica,sans-Serif" font-style="italic" font-size="32.00" fill="#29235c">int</text>
<polygon fill="#e7e2dd" stroke="transparent" points="744.29,-190.53 744.29,-250.53 1017.29,-250.53 1017.29,-190.53 744.29,-190.53"/>
<polygon fill="none" stroke="#29235c" points="744.29,-190.53 744.29,-250.53 1017.29,-250.53 1017.29,-190.53 744.29,-190.53"/>
<text text-anchor="start" x="755.29" y="-210.73" font-family="Helvetica,sans-Serif" font-size="32.00" fill="#29235c">user &#160;&#160;&#160;</text>
<text text-anchor="start" x="972.5" y="-211.73" font-family="Helvetica,sans-Serif" font-style="italic" font-size="32.00" fill="#29235c">int</text>
<polygon fill="none" stroke="#29235c" stroke-width="2" points="742.79,-189.53 742.79,-491.53 1017.79,-491.53 1017.79,-189.53 742.79,-189.53"/>
</a>
</g>
</g>
<!-- Operator&#45;&gt;User -->
<!-- Operator&#45;&gt;User -->
<g id="edge16" class="edge">
<title>Operator:e&#45;&gt;User:w</title>
<path fill="none" stroke="#29235c" stroke-width="3" d="M1018.29,-220.53C1167.45,-220.53 1206.8,-203.33 1351.04,-202.56"/>
<polygon fill="#29235c" stroke="#29235c" stroke-width="3" points="1351.16,-206.06 1361.15,-202.53 1351.14,-199.06 1351.16,-206.06"/>
<text text-anchor="middle" x="1370.04" y="-173.73" font-family="Helvetica,sans-Serif" font-size="32.00" fill="#29235c">1</text>
<text text-anchor="middle" x="1009.39" y="-191.73" font-family="Helvetica,sans-Serif" font-size="32.00" fill="#29235c">1</text>
</g>
<!-- Operator&#45;&gt;VTSCentre -->
<!-- Operator&#45;&gt;VTSCentre -->
<g id="edge14" class="edge">
<title>Operator:e&#45;&gt;VTSCentre:w</title>
<path fill="none" stroke="#29235c" stroke-width="3" d="M1018.29,-280.53C1243.61,-280.53 1162.91,-626.81 1378.97,-637.29"/>
<polygon fill="#29235c" stroke="#29235c" stroke-width="3" points="1379.07,-640.79 1389.15,-637.53 1379.23,-633.8 1379.07,-640.79"/>
<text text-anchor="middle" x="1398.04" y="-608.73" font-family="Helvetica,sans-Serif" font-size="32.00" fill="#29235c">1</text>
<text text-anchor="middle" x="1024.51" y="-251.73" font-family="Helvetica,sans-Serif" font-size="32.00" fill="#29235c">*</text>
</g>
</g>
</svg>
